<?xml version="1.0" encoding="UTF-8"?>
<svg width="720px" height="431px" viewBox="0 0 720 431" version="1.1" xmlns="http://www.w3.org/2000/svg" xmlns:xlink="http://www.w3.org/1999/xlink">
    <!-- Generator: Sketch 55.2 (78181) - https://sketchapp.com -->
    <title>Group 6</title>
    <desc>Created with Sketch.</desc>
    <defs>
        <polygon id="path-1" points="0 0 719.911533 0 719.911533 431 0 431"></polygon>
    </defs>
    <g id="Page-1" stroke="none" stroke-width="1" fill="none" fill-rule="evenodd">
        <g id="Desktop" transform="translate(-166.000000, -310.000000)">
            <g id="Group-6" transform="translate(166.000000, 310.000000)">
                <g id="Group-3">
                    <mask id="mask-2" fill="white">
                        <use xlink:href="#path-1"></use>
                    </mask>
                    <g id="Clip-2"></g>
                    <path d="M617.62275,154.572273 C610.172707,163.145255 601.091984,167.811809 590.400228,168.571936 L495.270717,168.571936 L495.270717,82.8538727 L590.400228,82.8538727 C601.091984,83.6296727 610.172707,88.0964 617.62275,96.2854 C625.068864,104.482236 628.793886,114.101373 628.793886,125.146727 C628.793886,136.199918 625.068864,146.003209 617.62275,154.572273 M703.003549,62.5694455 C691.734179,43.3429273 676.449016,28.0972818 657.163777,16.8599364 C637.862821,5.62259091 616.762223,0 593.838408,0 L400.718821,0 L207.445989,0 L103.722995,0 L0,0 L0,102.856191 L103.722995,102.856191 L103.722995,377.007455 L207.445989,431 L207.445989,102.856191 L400.718821,102.856191 L400.718821,431 L497.565457,377.007455 L497.565457,251.429727 L593.838408,251.429727 C616.762223,251.429727 637.862821,245.811055 657.163777,234.569791 C676.449016,223.340282 691.734179,208.098555 703.003549,188.860282 C714.276848,169.625927 719.911533,148.573536 719.911533,125.710945 C719.911533,102.856191 714.276848,81.8155545 703.003549,62.5694455" id="Fill-1" fill="#9C0100" mask="url(#mask-2)"></path>
                </g>
                <path d="M335,251.5 C335,266.134615 346.865385,278 361.5,278 C376.134615,278 388,266.134615 388,251.5 C388,236.865385 376.134615,225 361.5,225 C346.865385,225 335,236.865385 335,251.5" id="Fill-4" fill="#A70300"></path>
            </g>
        </g>
    </g>
</svg>