<svg width="30" height="18" viewBox="0 0 30 18" fill="none" xmlns="http://www.w3.org/2000/svg">
<path fill-rule="evenodd" clip-rule="evenodd" d="M27.3852 0.704127C28.1888 1.17344 28.8258 1.81015 29.2954 2.61311C29.7652 3.41689 30 4.29562 30 5.25011C30 6.20493 29.7652 7.08415 29.2954 7.88744C28.8258 8.69089 28.1888 9.32744 27.3852 9.79642C26.5809 10.2659 25.7016 10.5005 24.7463 10.5005H20.7344V15.7451L16.6987 18V4.29562H8.64465V18L4.32232 15.7451V4.29562H0V0H4.32232H8.64465H16.6987H24.7463C25.7016 0 26.5809 0.234818 27.3852 0.704127ZM24.603 7.04005C25.0486 7.00831 25.427 6.81342 25.7374 6.45538C26.0477 6.09751 26.2029 5.68809 26.2029 5.22647C26.2029 4.76518 26.0477 4.36345 25.7374 4.02113C25.427 3.67913 25.0486 3.49258 24.603 3.46018H20.6388V7.04005H24.603Z" fill="white"/>
<path d="M13.7143 10.8489C13.7143 11.5614 14.29 12.1391 15 12.1391C15.71 12.1391 16.2857 11.5614 16.2857 10.8489C16.2857 10.1364 15.71 9.55875 15 9.55875C14.29 9.55875 13.7143 10.1364 13.7143 10.8489Z" fill="white"/>
</svg>
